<svg width="20" height="20" fill="none" xmlns="http://www.w3.org/2000/svg"><path clip-rule="evenodd" d="M10.7112 3.68932l1.5229 3.0423c.1492.29866.4373.50576.7714.55368l3.4066.49037c.8417.12152 1.1767 1.1416.5675 1.7261l-2.4634 2.36713c-.2421.2327-.3523.5673-.2951.896l.5814 3.3418c.1432.8266-.7367 1.4574-1.489 1.0663l-3.0448-1.5789c-.2985-.1549-.656-.1549-.95536 0L6.26852 17.173c-.75231.3911-1.63218-.2397-1.48814-1.0663l.58051-3.3418c.05727-.3287-.05293-.6633-.29503-.896L2.60242 9.50177c-.60914-.5845-.2742-1.60458.56748-1.7261l3.40666-.49037c.33407-.04792.62302-.25502.77227-.55368l1.52197-3.0423c.37659-.75222 1.4638-.75222 1.8404 0z" stroke="#F6324C" stroke-width="1.5" stroke-linecap="round" stroke-linejoin="round"/></svg>