<svg width="20" height="20" fill="none" xmlns="http://www.w3.org/2000/svg"><path d="M14.9317 11.9336c-.2158.2091-.315.5116-.2658.8083l.7408 4.1c.0625.3475-.0841.6992-.375.9-.285.2083-.6641.2333-.975.0667l-3.6908-1.925c-.1283-.0684-.2708-.105-.41665-.1092h-.22584c-.07833.0117-.155.0367-.225.075l-3.69166 1.9342c-.1825.0916-.38917.1241-.59167.0916-.49333-.0933-.8225-.5633-.74167-1.0591l.74167-4.1c.04917-.2992-.05-.6034-.26583-.8159L1.94008 8.98356c-.25167-.24417-.33917-.61084-.22417-.94167.11167-.33.39667-.57083.74084-.625l4.14166-.60083c.315-.0325.59167-.22417.73334-.5075l1.82499-3.74167c.04334-.08333.09917-.16.16667-.225l.075-.05833c.03917-.04334.08417-.07917.13417-.10834l.09083-.03333.14167-.05833h.35082c.3133.0325.5892.22.7333.5l1.8492 3.725c.1333.2725.3925.46166.6917.5075l4.1416.60083c.35.05.6425.29167.7584.625.1091.33417.015.70083-.2417.94167l-3.1167 2.95004z" fill="#F6324C"/></svg>