<svg width="24" height="32" viewBox="0 0 24 32" fill="none" xmlns="http://www.w3.org/2000/svg">
<path fill-rule="evenodd" clip-rule="evenodd" d="M12.0028 0.636719C7.69104 0.636719 4.24594 4.26726 4.24531 8.68237C4.23163 13.0834 7.65327 16.7168 11.9507 16.732L11.9534 16.732H12.0028C16.3153 16.732 19.7588 13.0988 19.7588 8.68359C19.7588 4.26813 16.3151 0.636719 12.0028 0.636719ZM5.74531 8.68359C5.74531 5.03867 8.5756 2.13672 12.0028 2.13672C15.4297 2.13672 18.2588 5.03846 18.2588 8.68359C18.2588 12.3289 15.4295 15.232 12.0028 15.232H11.9547C8.54296 15.2192 5.73349 12.3173 5.74531 8.68603V8.68359ZM12.0026 20.5361C9.0374 20.5361 6.19872 20.7666 4.07794 21.5071C3.01266 21.8791 2.07528 22.3976 1.39867 23.1291C0.706098 23.8779 0.320312 24.8151 0.320312 25.9334C0.320312 27.0502 0.70298 27.9884 1.39177 28.7402C2.06508 29.4752 2.99902 29.9985 4.06289 30.3752C6.18061 31.125 9.02014 31.364 12.0026 31.364C14.9678 31.364 17.8061 31.1331 19.9266 30.3923C20.9917 30.0202 21.9288 29.5017 22.6053 28.7703C23.2977 28.0216 23.6834 27.0846 23.6834 25.9667C23.6834 24.8503 23.3008 23.9122 22.6122 23.1605C21.939 22.4257 21.0053 21.9023 19.9416 21.5255C17.8243 20.7754 14.9851 20.5361 12.0026 20.5361ZM1.82031 25.9334C1.82031 25.1923 2.06398 24.6189 2.49985 24.1477C2.95169 23.6592 3.64175 23.2483 4.57245 22.9233C6.44364 22.2699 9.07108 22.0361 12.0026 22.0361C14.9487 22.0361 17.5749 22.2784 19.4408 22.9394C20.3687 23.2681 21.0561 23.6825 21.5061 24.1737C21.9407 24.6481 22.1834 25.2244 22.1834 25.9667C22.1834 26.7074 21.9398 27.2806 21.504 27.7518C21.0523 28.2403 20.3624 28.6512 19.4319 28.9763C17.561 29.6298 14.934 29.864 12.0026 29.864C9.0564 29.864 6.42981 29.622 4.56354 28.9612C3.63543 28.6326 2.94792 28.2183 2.49777 27.727C2.0631 27.2525 1.82031 26.676 1.82031 25.9334Z" fill="#666666"/>
</svg>
