<svg width="39" height="18" viewBox="0 0 39 18" fill="none" xmlns="http://www.w3.org/2000/svg">
<mask id="path-1-outside-1" maskUnits="userSpaceOnUse" x="0.468445" y="0" width="39" height="18" fill="black">
<rect fill="white" x="0.468445" width="39" height="18"/>
<path d="M38.4631 3.84329C38.4925 3.6959 38.3968 3.55263 38.2494 3.52327C38.102 3.49391 38.2788 3.12461 38.2494 3.27199C37.6279 6.3868 33.9229 6.26738 31.0447 5.75156C30.961 5.60799 30.8708 5.46378 30.7737 5.31904C30.2403 4.52386 29.5188 3.78492 28.5914 3.18081C27.7643 2.64208 26.7734 2.21085 25.6061 1.94334C24.5894 1.67625 23.4865 1.72273 22.3227 1.99037C21.1778 2.25368 19.9733 2.73114 18.7343 3.33308C17.3488 4.00615 16.0242 5.04592 14.6832 6.09849C14.587 6.17401 14.4907 6.24962 14.3943 6.32514C14.0332 6.0268 13.6718 5.72553 13.313 5.42639C10.8465 3.37036 8.49864 1.4134 7.10153 1.11693C7.09333 1.11454 7.08493 1.1125 7.07636 1.11086C6.52781 1.004 5.9704 0.97439 5.42694 1.02205C4.88547 1.06953 4.35623 1.19361 3.8615 1.39427C2.15156 2.08782 1.23633 3.41076 1.04003 4.8346C0.942608 5.54121 1.02392 6.27177 1.27454 6.96125C1.52444 7.64879 1.94244 8.29531 2.51902 8.83601C3.87182 10.1046 6.0955 10.7934 9.05945 10.053C10.9708 9.57547 12.7001 8.33204 14.3864 7.02103C14.8462 7.39847 15.3043 7.76893 15.7553 8.12251C15.256 8.44419 14.7989 8.8373 14.3949 9.2968C13.6719 10.1191 13.1185 11.1539 12.7979 12.3716C12.6267 13.0219 12.5706 13.5978 12.6046 14.1028C12.6581 14.8988 12.9343 15.5207 13.3378 15.9823C13.742 16.4448 14.2712 16.7418 14.8309 16.889C15.1897 16.9835 15.5612 17.0165 15.92 16.9924C16.2438 16.9706 16.5559 16.8981 16.8333 16.7853C17.1192 16.6691 17.3712 16.5088 17.5652 16.3153C17.9411 15.9403 18.0203 15.4622 17.91 15.023C17.8543 14.8012 17.7488 14.5895 17.6083 14.4077C17.4674 14.2254 17.2897 14.0722 17.0901 13.9679C16.7197 13.7744 16.2811 13.7481 15.8621 14.0071C15.6639 14.1297 15.4839 14.3117 15.3454 14.5552C15.2254 14.7662 15.1362 15.0238 15.0937 15.3289C15.0732 15.4774 15.177 15.6145 15.3256 15.6351C15.4741 15.6556 15.6113 15.5518 15.6318 15.4033C15.6643 15.1697 15.7301 14.977 15.8176 14.8231C15.909 14.6625 16.0235 14.545 16.1471 14.4686C16.382 14.3233 16.6293 14.3389 16.8391 14.4485C16.9675 14.5155 17.084 14.617 17.1786 14.7394C17.2737 14.8624 17.345 15.0053 17.3825 15.1548C17.4495 15.4215 17.4041 15.7092 17.1823 15.9304C17.0406 16.0718 16.85 16.1916 16.6292 16.2814C16.4031 16.3733 16.1484 16.4324 15.8839 16.4502C15.5816 16.4705 15.2696 16.4429 14.9691 16.3638C14.5079 16.2425 14.0742 16.0004 13.7461 15.6251C13.4174 15.2489 13.1918 14.7343 13.1469 14.0666C13.1167 13.6173 13.1679 13.0998 13.3232 12.5098C13.6214 11.3773 14.1342 10.4171 14.8032 9.65615C15.218 9.18441 15.6926 8.78924 16.213 8.47709C17.4284 9.40699 18.5772 10.1855 19.5474 10.6089C20.6016 11.0689 21.4552 10.9543 22.0054 10.5698C22.2349 10.4095 22.4115 10.2021 22.529 9.96849C22.6467 9.73431 22.7044 9.47462 22.6956 9.21014C22.6758 8.61548 22.3241 7.99944 21.568 7.60709C21.0019 7.3134 20.2564 7.13354 19.4469 7.10702C18.7029 7.08265 17.9008 7.1879 17.1315 7.45382C16.8312 7.55761 16.5402 7.68296 16.2602 7.82904C15.7889 7.46269 15.3079 7.0753 14.8242 6.67896L15.0193 6.52588C16.3382 5.49061 17.641 4.46795 18.9704 3.82214C20.176 3.23646 21.3431 2.773 22.4439 2.51983C23.5259 2.271 24.543 2.2255 25.4679 2.46846L25.4774 2.47059C26.582 2.72268 27.5172 3.12879 28.2957 3.63586C29.158 4.19752 29.8281 4.88346 30.3228 5.62098L30.3248 5.62396C29.1931 5.4286 28.177 5.2934 27.4496 5.45588C25.9785 5.78452 25.2524 7.06236 25.1201 8.49418C25.071 9.02605 25.1046 9.5795 25.2129 10.1113C25.3215 10.6446 25.5055 11.1578 25.7569 11.6076C26.3832 12.7284 27.4199 13.4615 28.7552 13.1829C29.1598 13.0984 29.5634 12.9231 29.9403 12.6704C30.6055 12.2244 31.1904 11.5345 31.5495 10.6773C31.9069 9.82438 32.0416 8.80475 31.8098 7.69455C31.7194 7.2613 31.573 6.8145 31.362 6.35883C34.3838 6.89153 37.7697 7.31865 38.4631 3.84329ZM27.5666 5.98534C28.2909 5.82355 29.4349 6.01458 30.6962 6.24C30.9846 6.77787 31.1731 7.30237 31.2781 7.80512C31.4855 8.7988 31.3659 9.70909 31.0476 10.4689C30.7311 11.2245 30.219 11.8303 29.6382 12.2197C29.3195 12.4334 28.981 12.5811 28.6446 12.6513C27.5837 12.8726 26.7465 12.2661 26.2311 11.344C26.0069 10.9427 25.8423 10.4827 25.7446 10.0029C25.6466 9.52166 25.6161 9.02203 25.6604 8.54309C25.7723 7.33077 26.3675 6.2532 27.5666 5.98534ZM13.9564 6.66651C12.346 7.91434 10.6987 9.08318 8.92758 9.52563C6.16914 10.2147 4.12171 9.59443 2.89122 8.4405C2.37786 7.95908 2.00634 7.38522 1.78499 6.77626C1.56435 6.16924 1.49261 5.52707 1.57812 4.9069C1.7491 3.66676 2.55564 2.51068 4.06569 1.89821C4.50886 1.71846 4.98493 1.60714 5.47374 1.56427C5.96928 1.52081 6.47638 1.54758 6.97428 1.64458C6.97818 1.64533 6.98207 1.64596 6.98597 1.64654C8.24813 1.91028 10.549 3.82811 12.9663 5.84316C13.2949 6.11708 13.6256 6.39278 13.9564 6.66651ZM19.7643 10.1113C18.8901 9.72974 17.8497 9.03569 16.7396 8.19675C16.9246 8.11016 17.1142 8.03325 17.308 7.96627C18.0116 7.72307 18.7468 7.62686 19.4299 7.64924C20.1575 7.67307 20.8214 7.83151 21.3191 8.08977C21.8796 8.38058 22.1395 8.81555 22.1532 9.22715C22.159 9.40169 22.1212 9.57255 22.044 9.72608C21.9666 9.88019 21.8488 10.0178 21.6949 10.1254C21.2849 10.4119 20.6205 10.4849 19.7643 10.1113Z"/>
</mask>
<path d="M38.4631 3.84329C38.4925 3.6959 38.3968 3.55263 38.2494 3.52327C38.102 3.49391 38.2788 3.12461 38.2494 3.27199C37.6279 6.3868 33.9229 6.26738 31.0447 5.75156C30.961 5.60799 30.8708 5.46378 30.7737 5.31904C30.2403 4.52386 29.5188 3.78492 28.5914 3.18081C27.7643 2.64208 26.7734 2.21085 25.6061 1.94334C24.5894 1.67625 23.4865 1.72273 22.3227 1.99037C21.1778 2.25368 19.9733 2.73114 18.7343 3.33308C17.3488 4.00615 16.0242 5.04592 14.6832 6.09849C14.587 6.17401 14.4907 6.24962 14.3943 6.32514C14.0332 6.0268 13.6718 5.72553 13.313 5.42639C10.8465 3.37036 8.49864 1.4134 7.10153 1.11693C7.09333 1.11454 7.08493 1.1125 7.07636 1.11086C6.52781 1.004 5.9704 0.97439 5.42694 1.02205C4.88547 1.06953 4.35623 1.19361 3.8615 1.39427C2.15156 2.08782 1.23633 3.41076 1.04003 4.8346C0.942608 5.54121 1.02392 6.27177 1.27454 6.96125C1.52444 7.64879 1.94244 8.29531 2.51902 8.83601C3.87182 10.1046 6.0955 10.7934 9.05945 10.053C10.9708 9.57547 12.7001 8.33204 14.3864 7.02103C14.8462 7.39847 15.3043 7.76893 15.7553 8.12251C15.256 8.44419 14.7989 8.8373 14.3949 9.2968C13.6719 10.1191 13.1185 11.1539 12.7979 12.3716C12.6267 13.0219 12.5706 13.5978 12.6046 14.1028C12.6581 14.8988 12.9343 15.5207 13.3378 15.9823C13.742 16.4448 14.2712 16.7418 14.8309 16.889C15.1897 16.9835 15.5612 17.0165 15.92 16.9924C16.2438 16.9706 16.5559 16.8981 16.8333 16.7853C17.1192 16.6691 17.3712 16.5088 17.5652 16.3153C17.9411 15.9403 18.0203 15.4622 17.91 15.023C17.8543 14.8012 17.7488 14.5895 17.6083 14.4077C17.4674 14.2254 17.2897 14.0722 17.0901 13.9679C16.7197 13.7744 16.2811 13.7481 15.8621 14.0071C15.6639 14.1297 15.4839 14.3117 15.3454 14.5552C15.2254 14.7662 15.1362 15.0238 15.0937 15.3289C15.0732 15.4774 15.177 15.6145 15.3256 15.6351C15.4741 15.6556 15.6113 15.5518 15.6318 15.4033C15.6643 15.1697 15.7301 14.977 15.8176 14.8231C15.909 14.6625 16.0235 14.545 16.1471 14.4686C16.382 14.3233 16.6293 14.3389 16.8391 14.4485C16.9675 14.5155 17.084 14.617 17.1786 14.7394C17.2737 14.8624 17.345 15.0053 17.3825 15.1548C17.4495 15.4215 17.4041 15.7092 17.1823 15.9304C17.0406 16.0718 16.85 16.1916 16.6292 16.2814C16.4031 16.3733 16.1484 16.4324 15.8839 16.4502C15.5816 16.4705 15.2696 16.4429 14.9691 16.3638C14.5079 16.2425 14.0742 16.0004 13.7461 15.6251C13.4174 15.2489 13.1918 14.7343 13.1469 14.0666C13.1167 13.6173 13.1679 13.0998 13.3232 12.5098C13.6214 11.3773 14.1342 10.4171 14.8032 9.65615C15.218 9.18441 15.6926 8.78924 16.213 8.47709C17.4284 9.40699 18.5772 10.1855 19.5474 10.6089C20.6016 11.0689 21.4552 10.9543 22.0054 10.5698C22.2349 10.4095 22.4115 10.2021 22.529 9.96849C22.6467 9.73431 22.7044 9.47462 22.6956 9.21014C22.6758 8.61548 22.3241 7.99944 21.568 7.60709C21.0019 7.3134 20.2564 7.13354 19.4469 7.10702C18.7029 7.08265 17.9008 7.1879 17.1315 7.45382C16.8312 7.55761 16.5402 7.68296 16.2602 7.82904C15.7889 7.46269 15.3079 7.0753 14.8242 6.67896L15.0193 6.52588C16.3382 5.49061 17.641 4.46795 18.9704 3.82214C20.176 3.23646 21.3431 2.773 22.4439 2.51983C23.5259 2.271 24.543 2.2255 25.4679 2.46846L25.4774 2.47059C26.582 2.72268 27.5172 3.12879 28.2957 3.63586C29.158 4.19752 29.8281 4.88346 30.3228 5.62098L30.3248 5.62396C29.1931 5.4286 28.177 5.2934 27.4496 5.45588C25.9785 5.78452 25.2524 7.06236 25.1201 8.49418C25.071 9.02605 25.1046 9.5795 25.2129 10.1113C25.3215 10.6446 25.5055 11.1578 25.7569 11.6076C26.3832 12.7284 27.4199 13.4615 28.7552 13.1829C29.1598 13.0984 29.5634 12.9231 29.9403 12.6704C30.6055 12.2244 31.1904 11.5345 31.5495 10.6773C31.9069 9.82438 32.0416 8.80475 31.8098 7.69455C31.7194 7.2613 31.573 6.8145 31.362 6.35883C34.3838 6.89153 37.7697 7.31865 38.4631 3.84329ZM27.5666 5.98534C28.2909 5.82355 29.4349 6.01458 30.6962 6.24C30.9846 6.77787 31.1731 7.30237 31.2781 7.80512C31.4855 8.7988 31.3659 9.70909 31.0476 10.4689C30.7311 11.2245 30.219 11.8303 29.6382 12.2197C29.3195 12.4334 28.981 12.5811 28.6446 12.6513C27.5837 12.8726 26.7465 12.2661 26.2311 11.344C26.0069 10.9427 25.8423 10.4827 25.7446 10.0029C25.6466 9.52166 25.6161 9.02203 25.6604 8.54309C25.7723 7.33077 26.3675 6.2532 27.5666 5.98534ZM13.9564 6.66651C12.346 7.91434 10.6987 9.08318 8.92758 9.52563C6.16914 10.2147 4.12171 9.59443 2.89122 8.4405C2.37786 7.95908 2.00634 7.38522 1.78499 6.77626C1.56435 6.16924 1.49261 5.52707 1.57812 4.9069C1.7491 3.66676 2.55564 2.51068 4.06569 1.89821C4.50886 1.71846 4.98493 1.60714 5.47374 1.56427C5.96928 1.52081 6.47638 1.54758 6.97428 1.64458C6.97818 1.64533 6.98207 1.64596 6.98597 1.64654C8.24813 1.91028 10.549 3.82811 12.9663 5.84316C13.2949 6.11708 13.6256 6.39278 13.9564 6.66651ZM19.7643 10.1113C18.8901 9.72974 17.8497 9.03569 16.7396 8.19675C16.9246 8.11016 17.1142 8.03325 17.308 7.96627C18.0116 7.72307 18.7468 7.62686 19.4299 7.64924C20.1575 7.67307 20.8214 7.83151 21.3191 8.08977C21.8796 8.38058 22.1395 8.81555 22.1532 9.22715C22.159 9.40169 22.1212 9.57255 22.044 9.72608C21.9666 9.88019 21.8488 10.0178 21.6949 10.1254C21.2849 10.4119 20.6205 10.4849 19.7643 10.1113Z" fill="#B4975A"/>
<path d="M38.4631 3.84329C38.4925 3.6959 38.3968 3.55263 38.2494 3.52327C38.102 3.49391 38.2788 3.12461 38.2494 3.27199C37.6279 6.3868 33.9229 6.26738 31.0447 5.75156C30.961 5.60799 30.8708 5.46378 30.7737 5.31904C30.2403 4.52386 29.5188 3.78492 28.5914 3.18081C27.7643 2.64208 26.7734 2.21085 25.6061 1.94334C24.5894 1.67625 23.4865 1.72273 22.3227 1.99037C21.1778 2.25368 19.9733 2.73114 18.7343 3.33308C17.3488 4.00615 16.0242 5.04592 14.6832 6.09849C14.587 6.17401 14.4907 6.24962 14.3943 6.32514C14.0332 6.0268 13.6718 5.72553 13.313 5.42639C10.8465 3.37036 8.49864 1.4134 7.10153 1.11693C7.09333 1.11454 7.08493 1.1125 7.07636 1.11086C6.52781 1.004 5.9704 0.97439 5.42694 1.02205C4.88547 1.06953 4.35623 1.19361 3.8615 1.39427C2.15156 2.08782 1.23633 3.41076 1.04003 4.8346C0.942608 5.54121 1.02392 6.27177 1.27454 6.96125C1.52444 7.64879 1.94244 8.29531 2.51902 8.83601C3.87182 10.1046 6.0955 10.7934 9.05945 10.053C10.9708 9.57547 12.7001 8.33204 14.3864 7.02103C14.8462 7.39847 15.3043 7.76893 15.7553 8.12251C15.256 8.44419 14.7989 8.8373 14.3949 9.2968C13.6719 10.1191 13.1185 11.1539 12.7979 12.3716C12.6267 13.0219 12.5706 13.5978 12.6046 14.1028C12.6581 14.8988 12.9343 15.5207 13.3378 15.9823C13.742 16.4448 14.2712 16.7418 14.8309 16.889C15.1897 16.9835 15.5612 17.0165 15.92 16.9924C16.2438 16.9706 16.5559 16.8981 16.8333 16.7853C17.1192 16.6691 17.3712 16.5088 17.5652 16.3153C17.9411 15.9403 18.0203 15.4622 17.91 15.023C17.8543 14.8012 17.7488 14.5895 17.6083 14.4077C17.4674 14.2254 17.2897 14.0722 17.0901 13.9679C16.7197 13.7744 16.2811 13.7481 15.8621 14.0071C15.6639 14.1297 15.4839 14.3117 15.3454 14.5552C15.2254 14.7662 15.1362 15.0238 15.0937 15.3289C15.0732 15.4774 15.177 15.6145 15.3256 15.6351C15.4741 15.6556 15.6113 15.5518 15.6318 15.4033C15.6643 15.1697 15.7301 14.977 15.8176 14.8231C15.909 14.6625 16.0235 14.545 16.1471 14.4686C16.382 14.3233 16.6293 14.3389 16.8391 14.4485C16.9675 14.5155 17.084 14.617 17.1786 14.7394C17.2737 14.8624 17.345 15.0053 17.3825 15.1548C17.4495 15.4215 17.4041 15.7092 17.1823 15.9304C17.0406 16.0718 16.85 16.1916 16.6292 16.2814C16.4031 16.3733 16.1484 16.4324 15.8839 16.4502C15.5816 16.4705 15.2696 16.4429 14.9691 16.3638C14.5079 16.2425 14.0742 16.0004 13.7461 15.6251C13.4174 15.2489 13.1918 14.7343 13.1469 14.0666C13.1167 13.6173 13.1679 13.0998 13.3232 12.5098C13.6214 11.3773 14.1342 10.4171 14.8032 9.65615C15.218 9.18441 15.6926 8.78924 16.213 8.47709C17.4284 9.40699 18.5772 10.1855 19.5474 10.6089C20.6016 11.0689 21.4552 10.9543 22.0054 10.5698C22.2349 10.4095 22.4115 10.2021 22.529 9.96849C22.6467 9.73431 22.7044 9.47462 22.6956 9.21014C22.6758 8.61548 22.3241 7.99944 21.568 7.60709C21.0019 7.3134 20.2564 7.13354 19.4469 7.10702C18.7029 7.08265 17.9008 7.1879 17.1315 7.45382C16.8312 7.55761 16.5402 7.68296 16.2602 7.82904C15.7889 7.46269 15.3079 7.0753 14.8242 6.67896L15.0193 6.52588C16.3382 5.49061 17.641 4.46795 18.9704 3.82214C20.176 3.23646 21.3431 2.773 22.4439 2.51983C23.5259 2.271 24.543 2.2255 25.4679 2.46846L25.4774 2.47059C26.582 2.72268 27.5172 3.12879 28.2957 3.63586C29.158 4.19752 29.8281 4.88346 30.3228 5.62098L30.3248 5.62396C29.1931 5.4286 28.177 5.2934 27.4496 5.45588C25.9785 5.78452 25.2524 7.06236 25.1201 8.49418C25.071 9.02605 25.1046 9.5795 25.2129 10.1113C25.3215 10.6446 25.5055 11.1578 25.7569 11.6076C26.3832 12.7284 27.4199 13.4615 28.7552 13.1829C29.1598 13.0984 29.5634 12.9231 29.9403 12.6704C30.6055 12.2244 31.1904 11.5345 31.5495 10.6773C31.9069 9.82438 32.0416 8.80475 31.8098 7.69455C31.7194 7.2613 31.573 6.8145 31.362 6.35883C34.3838 6.89153 37.7697 7.31865 38.4631 3.84329ZM27.5666 5.98534C28.2909 5.82355 29.4349 6.01458 30.6962 6.24C30.9846 6.77787 31.1731 7.30237 31.2781 7.80512C31.4855 8.7988 31.3659 9.70909 31.0476 10.4689C30.7311 11.2245 30.219 11.8303 29.6382 12.2197C29.3195 12.4334 28.981 12.5811 28.6446 12.6513C27.5837 12.8726 26.7465 12.2661 26.2311 11.344C26.0069 10.9427 25.8423 10.4827 25.7446 10.0029C25.6466 9.52166 25.6161 9.02203 25.6604 8.54309C25.7723 7.33077 26.3675 6.2532 27.5666 5.98534ZM13.9564 6.66651C12.346 7.91434 10.6987 9.08318 8.92758 9.52563C6.16914 10.2147 4.12171 9.59443 2.89122 8.4405C2.37786 7.95908 2.00634 7.38522 1.78499 6.77626C1.56435 6.16924 1.49261 5.52707 1.57812 4.9069C1.7491 3.66676 2.55564 2.51068 4.06569 1.89821C4.50886 1.71846 4.98493 1.60714 5.47374 1.56427C5.96928 1.52081 6.47638 1.54758 6.97428 1.64458C6.97818 1.64533 6.98207 1.64596 6.98597 1.64654C8.24813 1.91028 10.549 3.82811 12.9663 5.84316C13.2949 6.11708 13.6256 6.39278 13.9564 6.66651ZM19.7643 10.1113C18.8901 9.72974 17.8497 9.03569 16.7396 8.19675C16.9246 8.11016 17.1142 8.03325 17.308 7.96627C18.0116 7.72307 18.7468 7.62686 19.4299 7.64924C20.1575 7.67307 20.8214 7.83151 21.3191 8.08977C21.8796 8.38058 22.1395 8.81555 22.1532 9.22715C22.159 9.40169 22.1212 9.57255 22.044 9.72608C21.9666 9.88019 21.8488 10.0178 21.6949 10.1254C21.2849 10.4119 20.6205 10.4849 19.7643 10.1113Z" stroke="#B4975A" stroke-width="0.4" mask="url(#path-1-outside-1)"/>
</svg>
