<svg width="39" height="18" viewBox="0 0 39 18" fill="none" xmlns="http://www.w3.org/2000/svg">
<mask id="path-1-outside-1" maskUnits="userSpaceOnUse" x="0" y="0" width="39" height="18" fill="black">
<rect fill="white" width="39" height="18"/>
<path d="M1.0053 3.84329C0.97593 3.6959 1.07163 3.55263 1.21905 3.52327C1.36646 3.49391 1.18968 3.12461 1.21905 3.27199C1.8405 6.3868 5.54552 6.26738 8.42376 5.75156C8.50742 5.60799 8.59763 5.46378 8.69472 5.31904C9.22815 4.52386 9.94962 3.78492 10.8771 3.18081C11.7042 2.64208 12.6951 2.21085 13.8624 1.94334C14.879 1.67625 15.982 1.72273 17.1457 1.99037C18.2906 2.25368 19.4951 2.73114 20.7342 3.33308C22.1197 4.00615 23.4443 5.04592 24.7852 6.09849C24.8814 6.17401 24.9777 6.24962 25.0742 6.32514C25.4352 6.0268 25.7966 5.72553 26.1555 5.42639C28.622 3.37036 30.9698 1.4134 32.3669 1.11693C32.3751 1.11454 32.3835 1.1125 32.3921 1.11086C32.9406 1.004 33.498 0.97439 34.0415 1.02205C34.583 1.06953 35.1122 1.19361 35.6069 1.39427C37.3169 2.08782 38.2321 3.41076 38.4284 4.8346C38.5258 5.54121 38.4445 6.27177 38.1939 6.96125C37.944 7.64879 37.526 8.29531 36.9494 8.83601C35.5966 10.1046 33.3729 10.7934 30.409 10.053C28.4977 9.57547 26.7684 8.33204 25.082 7.02103C24.6223 7.39847 24.1642 7.76893 23.7131 8.12251C24.2124 8.44419 24.6696 8.8373 25.0736 9.2968C25.7965 10.1191 26.35 11.1539 26.6706 12.3716C26.8418 13.0219 26.8978 13.5978 26.8639 14.1028C26.8103 14.8988 26.5342 15.5207 26.1307 15.9823C25.7264 16.4448 25.1973 16.7418 24.6376 16.889C24.2787 16.9835 23.9073 17.0165 23.5484 16.9924C23.2247 16.9706 22.9125 16.8981 22.6351 16.7853C22.3493 16.6691 22.0973 16.5088 21.9033 16.3153C21.5274 15.9403 21.4481 15.4622 21.5584 15.023C21.6141 14.8012 21.7197 14.5895 21.8602 14.4077C22.0011 14.2254 22.1787 14.0722 22.3783 13.9679C22.7488 13.7744 23.1874 13.7481 23.6063 14.0071C23.8045 14.1297 23.9845 14.3117 24.123 14.5552C24.2431 14.7662 24.3323 15.0238 24.3747 15.3289C24.3953 15.4774 24.2915 15.6145 24.1429 15.6351C23.9943 15.6556 23.8572 15.5518 23.8366 15.4033C23.8041 15.1697 23.7384 14.977 23.6508 14.8231C23.5595 14.6625 23.445 14.545 23.3213 14.4686C23.0865 14.3233 22.8391 14.3389 22.6293 14.4485C22.501 14.5155 22.3844 14.617 22.2898 14.7394C22.1948 14.8624 22.1235 15.0053 22.0859 15.1548C22.0189 15.4215 22.0643 15.7092 22.2861 15.9304C22.4279 16.0718 22.6185 16.1916 22.8393 16.2814C23.0653 16.3733 23.32 16.4324 23.5845 16.4502C23.8868 16.4705 24.1989 16.4429 24.4993 16.3638C24.9605 16.2425 25.3943 16.0004 25.7223 15.6251C26.0511 15.2489 26.2766 14.7343 26.3215 14.0666C26.3517 13.6173 26.3005 13.0998 26.1452 12.5098C25.8471 11.3773 25.3342 10.4171 24.6652 9.65615C24.2504 9.18441 23.7759 8.78924 23.2555 8.47709C22.04 9.40699 20.8913 10.1855 19.9211 10.6089C18.8668 11.0689 18.0132 10.9543 17.463 10.5698C17.2336 10.4095 17.0569 10.2021 16.9395 9.96849C16.8217 9.73431 16.7641 9.47462 16.7729 9.21014C16.7927 8.61548 17.1443 7.99944 17.9005 7.60709C18.4665 7.3134 19.212 7.13354 20.0215 7.10702C20.7656 7.08265 21.5677 7.1879 22.337 7.45382C22.6372 7.55761 22.9282 7.68296 23.2083 7.82904C23.6795 7.46269 24.1605 7.0753 24.6442 6.67896L24.4492 6.52588C23.1303 5.49061 21.8274 4.46795 20.4981 3.82214C19.2925 3.23646 18.1254 2.773 17.0245 2.51983C15.9425 2.271 14.9255 2.2255 14.0006 2.46846L13.991 2.47059C12.8864 2.72268 11.9512 3.12879 11.1727 3.63586C10.3104 4.19752 9.64037 4.88346 9.14562 5.62098L9.14363 5.62396C10.2754 5.4286 11.2914 5.2934 12.0188 5.45588C13.4899 5.78452 14.2161 7.06236 14.3483 8.49418C14.3974 9.02605 14.3639 9.5795 14.2556 10.1113C14.147 10.6446 13.963 11.1578 13.7116 11.6076C13.0853 12.7284 12.0485 13.4615 10.7133 13.1829C10.3086 13.0984 9.90502 12.9231 9.52819 12.6704C8.86293 12.2244 8.27802 11.5345 7.91891 10.6773C7.56159 9.82438 7.42686 8.80475 7.65864 7.69455C7.74909 7.2613 7.89549 6.8145 8.10646 6.35883C5.08468 6.89153 1.6987 7.31865 1.0053 3.84329ZM11.9018 5.98534C11.1775 5.82355 10.0335 6.01458 8.77229 6.24C8.48384 6.77787 8.29532 7.30237 8.19036 7.80512C7.98292 8.7988 8.10253 9.70909 8.42085 10.4689C8.73739 11.2245 9.24947 11.8303 9.83021 12.2197C10.149 12.4334 10.4874 12.5811 10.8239 12.6513C11.8848 12.8726 12.7219 12.2661 13.2373 11.344C13.4615 10.9427 13.6261 10.4827 13.7238 10.0029C13.8218 9.52166 13.8523 9.02203 13.8081 8.54309C13.6961 7.33077 13.1009 6.2532 11.9018 5.98534ZM25.512 6.66651C27.1225 7.91434 28.7698 9.08318 30.5409 9.52563C33.2993 10.2147 35.3467 9.59443 36.5772 8.4405C37.0906 7.95908 37.4621 7.38522 37.6835 6.77626C37.9041 6.16924 37.9758 5.52707 37.8903 4.9069C37.7193 3.66676 36.9128 2.51068 35.4028 1.89821C34.9596 1.71846 34.4835 1.60714 33.9947 1.56427C33.4992 1.52081 32.9921 1.54758 32.4942 1.64458C32.4903 1.64533 32.4864 1.64596 32.4825 1.64654C31.2203 1.91028 28.9195 3.82811 26.5022 5.84316C26.1735 6.11708 25.8428 6.39278 25.512 6.66651ZM19.7041 10.1113C20.5784 9.72974 21.6188 9.03569 22.7288 8.19675C22.5439 8.11016 22.3542 8.03325 22.1604 7.96627C21.4569 7.72307 20.7217 7.62686 20.0385 7.64924C19.3109 7.67307 18.6471 7.83151 18.1493 8.08977C17.5889 8.38058 17.3289 8.81555 17.3152 9.22715C17.3094 9.40169 17.3472 9.57255 17.4244 9.72608C17.5019 9.88019 17.6197 10.0178 17.7736 10.1254C18.1835 10.4119 18.848 10.4849 19.7041 10.1113Z"/>
</mask>
<path d="M1.0053 3.84329C0.97593 3.6959 1.07163 3.55263 1.21905 3.52327C1.36646 3.49391 1.18968 3.12461 1.21905 3.27199C1.8405 6.3868 5.54552 6.26738 8.42376 5.75156C8.50742 5.60799 8.59763 5.46378 8.69472 5.31904C9.22815 4.52386 9.94962 3.78492 10.8771 3.18081C11.7042 2.64208 12.6951 2.21085 13.8624 1.94334C14.879 1.67625 15.982 1.72273 17.1457 1.99037C18.2906 2.25368 19.4951 2.73114 20.7342 3.33308C22.1197 4.00615 23.4443 5.04592 24.7852 6.09849C24.8814 6.17401 24.9777 6.24962 25.0742 6.32514C25.4352 6.0268 25.7966 5.72553 26.1555 5.42639C28.622 3.37036 30.9698 1.4134 32.3669 1.11693C32.3751 1.11454 32.3835 1.1125 32.3921 1.11086C32.9406 1.004 33.498 0.97439 34.0415 1.02205C34.583 1.06953 35.1122 1.19361 35.6069 1.39427C37.3169 2.08782 38.2321 3.41076 38.4284 4.8346C38.5258 5.54121 38.4445 6.27177 38.1939 6.96125C37.944 7.64879 37.526 8.29531 36.9494 8.83601C35.5966 10.1046 33.3729 10.7934 30.409 10.053C28.4977 9.57547 26.7684 8.33204 25.082 7.02103C24.6223 7.39847 24.1642 7.76893 23.7131 8.12251C24.2124 8.44419 24.6696 8.8373 25.0736 9.2968C25.7965 10.1191 26.35 11.1539 26.6706 12.3716C26.8418 13.0219 26.8978 13.5978 26.8639 14.1028C26.8103 14.8988 26.5342 15.5207 26.1307 15.9823C25.7264 16.4448 25.1973 16.7418 24.6376 16.889C24.2787 16.9835 23.9073 17.0165 23.5484 16.9924C23.2247 16.9706 22.9125 16.8981 22.6351 16.7853C22.3493 16.6691 22.0973 16.5088 21.9033 16.3153C21.5274 15.9403 21.4481 15.4622 21.5584 15.023C21.6141 14.8012 21.7197 14.5895 21.8602 14.4077C22.0011 14.2254 22.1787 14.0722 22.3783 13.9679C22.7488 13.7744 23.1874 13.7481 23.6063 14.0071C23.8045 14.1297 23.9845 14.3117 24.123 14.5552C24.2431 14.7662 24.3323 15.0238 24.3747 15.3289C24.3953 15.4774 24.2915 15.6145 24.1429 15.6351C23.9943 15.6556 23.8572 15.5518 23.8366 15.4033C23.8041 15.1697 23.7384 14.977 23.6508 14.8231C23.5595 14.6625 23.445 14.545 23.3213 14.4686C23.0865 14.3233 22.8391 14.3389 22.6293 14.4485C22.501 14.5155 22.3844 14.617 22.2898 14.7394C22.1948 14.8624 22.1235 15.0053 22.0859 15.1548C22.0189 15.4215 22.0643 15.7092 22.2861 15.9304C22.4279 16.0718 22.6185 16.1916 22.8393 16.2814C23.0653 16.3733 23.32 16.4324 23.5845 16.4502C23.8868 16.4705 24.1989 16.4429 24.4993 16.3638C24.9605 16.2425 25.3943 16.0004 25.7223 15.6251C26.0511 15.2489 26.2766 14.7343 26.3215 14.0666C26.3517 13.6173 26.3005 13.0998 26.1452 12.5098C25.8471 11.3773 25.3342 10.4171 24.6652 9.65615C24.2504 9.18441 23.7759 8.78924 23.2555 8.47709C22.04 9.40699 20.8913 10.1855 19.9211 10.6089C18.8668 11.0689 18.0132 10.9543 17.463 10.5698C17.2336 10.4095 17.0569 10.2021 16.9395 9.96849C16.8217 9.73431 16.7641 9.47462 16.7729 9.21014C16.7927 8.61548 17.1443 7.99944 17.9005 7.60709C18.4665 7.3134 19.212 7.13354 20.0215 7.10702C20.7656 7.08265 21.5677 7.1879 22.337 7.45382C22.6372 7.55761 22.9282 7.68296 23.2083 7.82904C23.6795 7.46269 24.1605 7.0753 24.6442 6.67896L24.4492 6.52588C23.1303 5.49061 21.8274 4.46795 20.4981 3.82214C19.2925 3.23646 18.1254 2.773 17.0245 2.51983C15.9425 2.271 14.9255 2.2255 14.0006 2.46846L13.991 2.47059C12.8864 2.72268 11.9512 3.12879 11.1727 3.63586C10.3104 4.19752 9.64037 4.88346 9.14562 5.62098L9.14363 5.62396C10.2754 5.4286 11.2914 5.2934 12.0188 5.45588C13.4899 5.78452 14.2161 7.06236 14.3483 8.49418C14.3974 9.02605 14.3639 9.5795 14.2556 10.1113C14.147 10.6446 13.963 11.1578 13.7116 11.6076C13.0853 12.7284 12.0485 13.4615 10.7133 13.1829C10.3086 13.0984 9.90502 12.9231 9.52819 12.6704C8.86293 12.2244 8.27802 11.5345 7.91891 10.6773C7.56159 9.82438 7.42686 8.80475 7.65864 7.69455C7.74909 7.2613 7.89549 6.8145 8.10646 6.35883C5.08468 6.89153 1.6987 7.31865 1.0053 3.84329ZM11.9018 5.98534C11.1775 5.82355 10.0335 6.01458 8.77229 6.24C8.48384 6.77787 8.29532 7.30237 8.19036 7.80512C7.98292 8.7988 8.10253 9.70909 8.42085 10.4689C8.73739 11.2245 9.24947 11.8303 9.83021 12.2197C10.149 12.4334 10.4874 12.5811 10.8239 12.6513C11.8848 12.8726 12.7219 12.2661 13.2373 11.344C13.4615 10.9427 13.6261 10.4827 13.7238 10.0029C13.8218 9.52166 13.8523 9.02203 13.8081 8.54309C13.6961 7.33077 13.1009 6.2532 11.9018 5.98534ZM25.512 6.66651C27.1225 7.91434 28.7698 9.08318 30.5409 9.52563C33.2993 10.2147 35.3467 9.59443 36.5772 8.4405C37.0906 7.95908 37.4621 7.38522 37.6835 6.77626C37.9041 6.16924 37.9758 5.52707 37.8903 4.9069C37.7193 3.66676 36.9128 2.51068 35.4028 1.89821C34.9596 1.71846 34.4835 1.60714 33.9947 1.56427C33.4992 1.52081 32.9921 1.54758 32.4942 1.64458C32.4903 1.64533 32.4864 1.64596 32.4825 1.64654C31.2203 1.91028 28.9195 3.82811 26.5022 5.84316C26.1735 6.11708 25.8428 6.39278 25.512 6.66651ZM19.7041 10.1113C20.5784 9.72974 21.6188 9.03569 22.7288 8.19675C22.5439 8.11016 22.3542 8.03325 22.1604 7.96627C21.4569 7.72307 20.7217 7.62686 20.0385 7.64924C19.3109 7.67307 18.6471 7.83151 18.1493 8.08977C17.5889 8.38058 17.3289 8.81555 17.3152 9.22715C17.3094 9.40169 17.3472 9.57255 17.4244 9.72608C17.5019 9.88019 17.6197 10.0178 17.7736 10.1254C18.1835 10.4119 18.848 10.4849 19.7041 10.1113Z" fill="#B4975A"/>
<path d="M1.0053 3.84329C0.97593 3.6959 1.07163 3.55263 1.21905 3.52327C1.36646 3.49391 1.18968 3.12461 1.21905 3.27199C1.8405 6.3868 5.54552 6.26738 8.42376 5.75156C8.50742 5.60799 8.59763 5.46378 8.69472 5.31904C9.22815 4.52386 9.94962 3.78492 10.8771 3.18081C11.7042 2.64208 12.6951 2.21085 13.8624 1.94334C14.879 1.67625 15.982 1.72273 17.1457 1.99037C18.2906 2.25368 19.4951 2.73114 20.7342 3.33308C22.1197 4.00615 23.4443 5.04592 24.7852 6.09849C24.8814 6.17401 24.9777 6.24962 25.0742 6.32514C25.4352 6.0268 25.7966 5.72553 26.1555 5.42639C28.622 3.37036 30.9698 1.4134 32.3669 1.11693C32.3751 1.11454 32.3835 1.1125 32.3921 1.11086C32.9406 1.004 33.498 0.97439 34.0415 1.02205C34.583 1.06953 35.1122 1.19361 35.6069 1.39427C37.3169 2.08782 38.2321 3.41076 38.4284 4.8346C38.5258 5.54121 38.4445 6.27177 38.1939 6.96125C37.944 7.64879 37.526 8.29531 36.9494 8.83601C35.5966 10.1046 33.3729 10.7934 30.409 10.053C28.4977 9.57547 26.7684 8.33204 25.082 7.02103C24.6223 7.39847 24.1642 7.76893 23.7131 8.12251C24.2124 8.44419 24.6696 8.8373 25.0736 9.2968C25.7965 10.1191 26.35 11.1539 26.6706 12.3716C26.8418 13.0219 26.8978 13.5978 26.8639 14.1028C26.8103 14.8988 26.5342 15.5207 26.1307 15.9823C25.7264 16.4448 25.1973 16.7418 24.6376 16.889C24.2787 16.9835 23.9073 17.0165 23.5484 16.9924C23.2247 16.9706 22.9125 16.8981 22.6351 16.7853C22.3493 16.6691 22.0973 16.5088 21.9033 16.3153C21.5274 15.9403 21.4481 15.4622 21.5584 15.023C21.6141 14.8012 21.7197 14.5895 21.8602 14.4077C22.0011 14.2254 22.1787 14.0722 22.3783 13.9679C22.7488 13.7744 23.1874 13.7481 23.6063 14.0071C23.8045 14.1297 23.9845 14.3117 24.123 14.5552C24.2431 14.7662 24.3323 15.0238 24.3747 15.3289C24.3953 15.4774 24.2915 15.6145 24.1429 15.6351C23.9943 15.6556 23.8572 15.5518 23.8366 15.4033C23.8041 15.1697 23.7384 14.977 23.6508 14.8231C23.5595 14.6625 23.445 14.545 23.3213 14.4686C23.0865 14.3233 22.8391 14.3389 22.6293 14.4485C22.501 14.5155 22.3844 14.617 22.2898 14.7394C22.1948 14.8624 22.1235 15.0053 22.0859 15.1548C22.0189 15.4215 22.0643 15.7092 22.2861 15.9304C22.4279 16.0718 22.6185 16.1916 22.8393 16.2814C23.0653 16.3733 23.32 16.4324 23.5845 16.4502C23.8868 16.4705 24.1989 16.4429 24.4993 16.3638C24.9605 16.2425 25.3943 16.0004 25.7223 15.6251C26.0511 15.2489 26.2766 14.7343 26.3215 14.0666C26.3517 13.6173 26.3005 13.0998 26.1452 12.5098C25.8471 11.3773 25.3342 10.4171 24.6652 9.65615C24.2504 9.18441 23.7759 8.78924 23.2555 8.47709C22.04 9.40699 20.8913 10.1855 19.9211 10.6089C18.8668 11.0689 18.0132 10.9543 17.463 10.5698C17.2336 10.4095 17.0569 10.2021 16.9395 9.96849C16.8217 9.73431 16.7641 9.47462 16.7729 9.21014C16.7927 8.61548 17.1443 7.99944 17.9005 7.60709C18.4665 7.3134 19.212 7.13354 20.0215 7.10702C20.7656 7.08265 21.5677 7.1879 22.337 7.45382C22.6372 7.55761 22.9282 7.68296 23.2083 7.82904C23.6795 7.46269 24.1605 7.0753 24.6442 6.67896L24.4492 6.52588C23.1303 5.49061 21.8274 4.46795 20.4981 3.82214C19.2925 3.23646 18.1254 2.773 17.0245 2.51983C15.9425 2.271 14.9255 2.2255 14.0006 2.46846L13.991 2.47059C12.8864 2.72268 11.9512 3.12879 11.1727 3.63586C10.3104 4.19752 9.64037 4.88346 9.14562 5.62098L9.14363 5.62396C10.2754 5.4286 11.2914 5.2934 12.0188 5.45588C13.4899 5.78452 14.2161 7.06236 14.3483 8.49418C14.3974 9.02605 14.3639 9.5795 14.2556 10.1113C14.147 10.6446 13.963 11.1578 13.7116 11.6076C13.0853 12.7284 12.0485 13.4615 10.7133 13.1829C10.3086 13.0984 9.90502 12.9231 9.52819 12.6704C8.86293 12.2244 8.27802 11.5345 7.91891 10.6773C7.56159 9.82438 7.42686 8.80475 7.65864 7.69455C7.74909 7.2613 7.89549 6.8145 8.10646 6.35883C5.08468 6.89153 1.6987 7.31865 1.0053 3.84329ZM11.9018 5.98534C11.1775 5.82355 10.0335 6.01458 8.77229 6.24C8.48384 6.77787 8.29532 7.30237 8.19036 7.80512C7.98292 8.7988 8.10253 9.70909 8.42085 10.4689C8.73739 11.2245 9.24947 11.8303 9.83021 12.2197C10.149 12.4334 10.4874 12.5811 10.8239 12.6513C11.8848 12.8726 12.7219 12.2661 13.2373 11.344C13.4615 10.9427 13.6261 10.4827 13.7238 10.0029C13.8218 9.52166 13.8523 9.02203 13.8081 8.54309C13.6961 7.33077 13.1009 6.2532 11.9018 5.98534ZM25.512 6.66651C27.1225 7.91434 28.7698 9.08318 30.5409 9.52563C33.2993 10.2147 35.3467 9.59443 36.5772 8.4405C37.0906 7.95908 37.4621 7.38522 37.6835 6.77626C37.9041 6.16924 37.9758 5.52707 37.8903 4.9069C37.7193 3.66676 36.9128 2.51068 35.4028 1.89821C34.9596 1.71846 34.4835 1.60714 33.9947 1.56427C33.4992 1.52081 32.9921 1.54758 32.4942 1.64458C32.4903 1.64533 32.4864 1.64596 32.4825 1.64654C31.2203 1.91028 28.9195 3.82811 26.5022 5.84316C26.1735 6.11708 25.8428 6.39278 25.512 6.66651ZM19.7041 10.1113C20.5784 9.72974 21.6188 9.03569 22.7288 8.19675C22.5439 8.11016 22.3542 8.03325 22.1604 7.96627C21.4569 7.72307 20.7217 7.62686 20.0385 7.64924C19.3109 7.67307 18.6471 7.83151 18.1493 8.08977C17.5889 8.38058 17.3289 8.81555 17.3152 9.22715C17.3094 9.40169 17.3472 9.57255 17.4244 9.72608C17.5019 9.88019 17.6197 10.0178 17.7736 10.1254C18.1835 10.4119 18.848 10.4849 19.7041 10.1113Z" stroke="#B4975A" stroke-width="0.4" mask="url(#path-1-outside-1)"/>
</svg>
