<svg width="37" height="32" viewBox="0 0 37 32" fill="none" xmlns="http://www.w3.org/2000/svg">
<path d="M5.55 0C4.18771 0 3.08333 1.10208 3.08333 2.46154C3.11933 6.10869 3.08333 9.96084 3.08333 13.7994C1.961 14.2882 1.23495 15.3934 1.23333 16.6154V18.4615H0.616667C0.276113 18.4615 0 18.7371 0 19.0769V27.6923C0 28.0322 0.276113 28.3077 0.616667 28.3077H1.23333V31.3846C1.23333 31.7245 1.50945 32 1.85 32H4.31667C4.65722 32 4.93333 31.7245 4.93333 31.3846V28.3077H32.0667V31.3846C32.0667 31.7245 32.3428 32 32.6833 32H35.15C35.4906 32 35.7667 31.7245 35.7667 31.3846V28.3077H36.3833C36.7239 28.3077 37 28.0322 37 27.6923V19.0769C37 18.7371 36.7239 18.4615 36.3833 18.4615H35.7667V16.6154C35.765 15.3934 35.039 14.2882 33.9167 13.7994C33.8367 10.0741 33.8733 5.66852 33.9167 2.46154C33.9167 1.10208 32.8123 0 31.45 0C30.0877 0 28.9833 1.10208 28.9833 2.46154C28.9859 2.89492 29.1042 3.31977 29.3261 3.69231H7.67386C7.89578 3.31977 8.01412 2.89492 8.01667 2.46154C8.01667 1.10208 6.91229 0 5.55 0ZM5.55 1.23077C6.23119 1.23077 6.78333 1.78177 6.78333 2.46154C6.78333 3.14131 6.23119 3.69231 5.55 3.69231C4.86881 3.69231 4.31667 3.14131 4.31667 2.46154C4.31667 1.78177 4.86881 1.23077 5.55 1.23077ZM31.45 1.23077C32.1312 1.23077 32.6833 1.78177 32.6833 2.46154C32.6833 3.14131 32.1312 3.69231 31.45 3.69231C30.7688 3.69231 30.2167 3.14131 30.2167 2.46154C30.2167 1.78177 30.7688 1.23077 31.45 1.23077ZM4.31667 4.92308H32.6833V13.5385H30.2007C30.6088 13.009 30.8311 12.3603 30.8333 11.6923V10.4615C30.8313 8.76308 29.452 7.38662 27.75 7.38461H22.8167C21.1147 7.38646 19.7353 8.76308 19.7333 10.4615V11.6923C19.7356 12.3603 19.9579 13.009 20.366 13.5385H16.634C17.0421 13.009 17.2644 12.3603 17.2667 11.6923V10.4615C17.2647 8.76308 15.8853 7.38662 14.1833 7.38461H9.25C7.548 7.38646 6.16867 8.76308 6.16667 10.4615V11.6923C6.16889 12.3603 6.39121 13.009 6.79929 13.5385H4.31667V4.92308ZM9.25 8.61539H14.1833C15.2051 8.61539 16.0333 9.44192 16.0333 10.4615V11.6923C16.0333 12.7119 15.2051 13.5385 14.1833 13.5385H9.25C8.22826 13.5385 7.4 12.7119 7.4 11.6923V10.4615C7.4 9.44192 8.22826 8.61539 9.25 8.61539ZM22.8167 8.61539H27.75C28.7717 8.61539 29.6 9.44192 29.6 10.4615V11.6923C29.6 12.7119 28.7717 13.5385 27.75 13.5385H22.8167C21.7949 13.5385 20.9667 12.7119 20.9667 11.6923V10.4615C20.9667 9.44192 21.7949 8.61539 22.8167 8.61539ZM4.31667 14.7692H32.6833C33.7051 14.7692 34.5333 15.5958 34.5333 16.6154V18.4615H2.46667V16.6154C2.46667 15.5958 3.29493 14.7692 4.31667 14.7692ZM1.23333 19.6923H35.7667V27.0769H1.23333V19.6923ZM2.46667 28.3077H3.7V30.7692H2.46667V28.3077ZM33.3 28.3077H34.5333V30.7692H33.3V28.3077Z" fill="#B4975A"/>
</svg>
