<svg width="30" height="30" viewBox="0 0 30 30" fill="none" xmlns="http://www.w3.org/2000/svg">
<path d="M29.2857 15.7757C29.68 15.7757 30 15.4557 30 15.0614V7.85714C30 7.46286 29.68 7.14286 29.2857 7.14286H22.8571V0.714286C22.8571 0.32 22.5371 0 22.1429 0H17.8875C17.4932 0 17.1732 0.32 17.1732 0.714286C17.1732 1.10857 17.4932 1.42857 17.8875 1.42857H21.4286V7.85714V14.2857H7.85714C7.46286 14.2857 7.14286 14.6057 7.14286 15V21.4286H1.42857V1.42857H10.0582C10.4525 1.42857 10.7725 1.10857 10.7725 0.714286C10.7725 0.32 10.4525 0 10.0582 0H0.714286C0.32 0 0 0.32 0 0.714286V22.1429C0 22.5371 0.32 22.8571 0.714286 22.8571H7.14286V29.2857C7.14286 29.68 7.46286 30 7.85714 30H10.0582C10.4525 30 10.7725 29.68 10.7725 29.2857C10.7725 28.8914 10.4525 28.5714 10.0582 28.5714H8.57143V22.1429V15.7143H21.4286V28.5714H18.2304C18.2229 28.5714 18.2161 28.5736 18.2086 28.5736C17.8486 24.7543 14.6261 21.7554 10.7143 21.7554C10.5168 21.7554 10.3571 21.915 10.3571 22.1125C10.3571 22.31 10.5168 22.4696 10.7143 22.4696C14.4411 22.4696 17.4743 25.4768 17.5254 29.1911C17.5211 29.2225 17.5161 29.2532 17.5161 29.2857C17.5161 29.68 17.8361 30 18.2304 30H29.2857C29.68 30 30 29.68 30 29.2857V22.0557C30 21.6614 29.68 21.3414 29.2857 21.3414C28.8914 21.3414 28.5714 21.6614 28.5714 22.0557V28.5714H22.8571V15V8.57143H28.5714V15.0614C28.5714 15.4557 28.8914 15.7757 29.2857 15.7757Z" fill="#B4975A"/>
</svg>
