<svg width="38" height="29" viewBox="0 0 38 29" fill="none" xmlns="http://www.w3.org/2000/svg">
<path d="M37.24 0H0.76C0.34048 0 0 0.341895 0 0.763158V23.6579C0 24.0799 0.34048 24.4211 0.76 24.4211H18.24V27.4737H12.92C12.5005 27.4737 12.16 27.8148 12.16 28.2368C12.16 28.6589 12.5005 29 12.92 29H25.08C25.5003 29 25.84 28.6589 25.84 28.2368C25.84 27.8148 25.5003 27.4737 25.08 27.4737H19.76V24.4211H37.24C37.6603 24.4211 38 24.0799 38 23.6579V0.763158C38 0.341895 37.6603 0 37.24 0ZM36.48 22.8947H1.52V1.52632H36.48V22.8947Z" fill="#B4975A"/>
</svg>
