<svg width="32" height="25" viewBox="0 0 32 25" fill="none" xmlns="http://www.w3.org/2000/svg">
<path d="M31 7.22472C29.0313 5.25144 26.6931 3.68598 24.1192 2.61788C21.5454 1.54977 18.7864 1 16 1C13.2136 1 10.4546 1.54977 7.88076 2.61788C5.30691 3.68598 2.96874 5.25144 1 7.22472M26.0031 12.2723C24.6903 10.958 23.1316 9.91542 21.416 9.2041C19.7004 8.49278 17.8617 8.12666 16.0047 8.12666C14.1477 8.12666 12.3089 8.49278 10.5934 9.2041C8.87782 9.91542 7.3191 10.958 6.00625 12.2723M11.0031 17.2355C12.3287 15.9097 14.126 15.165 16 15.165C17.874 15.165 19.6713 15.9097 20.9969 17.2355M16.9375 23.0618C16.9375 23.5799 16.5178 24 16 24C15.4822 24 15.0625 23.5799 15.0625 23.0618C15.0625 22.5436 15.4822 22.1236 16 22.1236C16.5178 22.1236 16.9375 22.5436 16.9375 23.0618Z" stroke="#B4975A" stroke-width="1.5" stroke-linecap="round" stroke-linejoin="round"/>
</svg>
